<svg id="Layer_1" data-name="Layer 1" xmlns="http://www.w3.org/2000/svg" viewBox="0 0 44 44"><title>client</title><path d="M22,22.82A11.41,11.41,0,1,1,33.38,11.41,11.41,11.41,0,0,1,22,22.82ZM22,1.27A10.14,10.14,0,1,0,32.11,11.41,10.13,10.13,0,0,0,22,1.27Z" style="fill:#234a73"/><path d="M32.27,9.11H23.45a6,6,0,0,1-6-6V1.6a.64.64,0,1,1,1.27,0V3.1a4.73,4.73,0,0,0,4.72,4.73h8.82a.64.64,0,0,1,0,1.27Z" style="fill:#234a73"/><path d="M12.72,9.11A6.06,6.06,0,0,1,11.57,9a.64.64,0,0,1,.24-1.25,4.74,4.74,0,0,0,5.65-4.66v-1a.64.64,0,1,1,1.27,0v1A6,6,0,0,1,12.72,9.11Z" style="fill:#234a73"/><path d="M22,19.64a7.74,7.74,0,0,1-3.46-.8.64.64,0,0,1,.57-1.14,6.56,6.56,0,0,0,5.78,0,.64.64,0,0,1,.57,1.14A7.74,7.74,0,0,1,22,19.64Z" style="fill:#234a73"/><path d="M43.36,44H39.13a.64.64,0,0,1,0-1.27h3.59a20.69,20.69,0,0,0-14.2-19.1,13.75,13.75,0,0,1-13,0A20.7,20.7,0,0,0,1.27,43.36a.64.64,0,1,1-1.27,0,22,22,0,0,1,15.36-21,.63.63,0,0,1,.5.05,12.48,12.48,0,0,0,12.28,0,.64.64,0,0,1,.5-.05A22,22,0,0,1,44,43.36.64.64,0,0,1,43.36,44Z" style="fill:#234a73"/><path d="M7.88,44H4a.64.64,0,0,1,0-1.27H7.26a14.8,14.8,0,0,1,.81-4.26.64.64,0,1,1,1.2.42,13.54,13.54,0,0,0-.75,4.47A.64.64,0,0,1,7.88,44Z" style="fill:#234a73"/><path d="M36,44H11.54a.64.64,0,0,1,0-1.27H35.31a13.48,13.48,0,0,0-.89-4.24A.64.64,0,1,1,35.61,38a14.79,14.79,0,0,1,1,5.33A.64.64,0,0,1,36,44Z" style="fill:#234a73"/><path d="M24.69,41.43a.64.64,0,0,1-.59-.4L22,35.68,19.91,41a.64.64,0,1,1-1.18-.47l2.69-6.86a.63.63,0,0,1,1.18,0l2.69,6.86a.64.64,0,0,1-.59.87Z" style="fill:#234a73"/><path d="M22,32.61a.63.63,0,0,1-.45-.19L19.11,30a.64.64,0,0,1,0-.9l2.44-2.45a.65.65,0,0,1,.9,0l2.44,2.45a.64.64,0,0,1,0,.9l-2.44,2.45A.63.63,0,0,1,22,32.61Zm-1.54-3.09L22,31.08l1.54-1.55L22,28Z" style="fill:#234a73"/></svg>