<svg id="Layer_1" data-name="Layer 1" xmlns="http://www.w3.org/2000/svg" viewBox="0 0 41 41"><title>Untitled-2</title><path d="M20.5,37A16.48,16.48,0,1,1,37,20.5,16.5,16.5,0,0,1,20.5,37Zm0-31.73A15.24,15.24,0,1,0,35.74,20.5,15.26,15.26,0,0,0,20.5,5.26Z" style="fill:#234a73"/><path d="M20.5,41a20.29,20.29,0,0,1-9.22-2.19.62.62,0,0,1,.56-1.1,19.06,19.06,0,0,0,8.67,2.05A19.29,19.29,0,0,0,39.76,20.5a19.08,19.08,0,0,0-1.9-8.34A.62.62,0,0,1,39,11.62a20.31,20.31,0,0,1,2,8.88A20.52,20.52,0,0,1,20.5,41Z" style="fill:#234a73"/><path d="M6.79,35.52a.62.62,0,0,1-.43-.17A20.5,20.5,0,0,1,20.5,0,20.4,20.4,0,0,1,34.76,5.77a.62.62,0,1,1-.86.89A19.26,19.26,0,0,0,1.24,20.5a19.1,19.1,0,0,0,6,14,.62.62,0,0,1-.43,1.07Z" style="fill:#234a73"/><path d="M28.47,27.6a.61.61,0,0,1-.39-.14l-8.19-6.67V11.89a.62.62,0,1,1,1.24,0v8.32l7.74,6.3a.62.62,0,0,1-.39,1.1Z" style="fill:#234a73"/></svg>