<svg id="Layer_2" data-name="Layer 2" xmlns="http://www.w3.org/2000/svg" viewBox="0 0 2287.32 601.73"><title>React-native-icon</title><path d="M559.79,305.93c0-31.1-38.94-60.57-98.65-78.84,13.78-60.85,7.65-109.27-19.33-124.77A42,42,0,0,0,420.38,97V118.3a22.16,22.16,0,0,1,10.91,2.49c13,7.46,18.66,35.88,14.26,72.43-1.05,9-2.77,18.47-4.88,28.13a463.69,463.69,0,0,0-60.76-10.43,466.74,466.74,0,0,0-39.8-47.84c31.19-29,60.47-44.87,80.37-44.87V96.87h0c-26.31,0-60.76,18.75-95.59,51.29-34.83-32.34-69.27-50.9-95.59-50.9v21.34c19.81,0,49.18,15.79,80.37,44.59a451.92,451.92,0,0,0-39.52,47.75,446.81,446.81,0,0,0-60.85,10.52c-2.2-9.57-3.83-18.85-5-27.75-4.5-36.55,1.05-65,14-72.53,2.87-1.72,6.6-2.49,11-2.49V97.35h0a42.66,42.66,0,0,0-21.62,5.36c-26.89,15.5-32.91,63.82-19,124.48-59.51,18.37-98.26,47.75-98.26,78.75S129.32,366.5,189,384.77c-13.78,60.85-7.65,109.27,19.33,124.77,6.22,3.64,13.49,5.36,21.53,5.36,26.31,0,60.76-18.75,95.59-51.29,34.83,32.34,69.27,50.9,95.59,50.9a42.66,42.66,0,0,0,21.62-5.36c26.89-15.5,32.91-63.82,19-124.48C521,366.4,559.79,336.93,559.79,305.93ZM435.21,242.11c-3.54,12.34-7.94,25.07-12.92,37.79-3.92-7.65-8-15.31-12.53-23s-9.09-15.12-13.78-22.39C409.57,236.56,422.68,239.05,435.21,242.11ZM391.39,344c-7.46,12.92-15.12,25.16-23.06,36.55-14.26,1.24-28.7,1.91-43.25,1.91s-28.9-.67-43.06-1.82q-11.91-17.08-23.15-36.36Q248,325.5,239,306.22c5.93-12.82,12.63-25.64,19.81-38.18,7.46-12.92,15.12-25.16,23.06-36.55,14.26-1.24,28.7-1.91,43.25-1.91s28.9.67,43.06,1.82q11.91,17.08,23.15,36.36,10.91,18.8,19.9,38.08C405.17,318.66,398.57,331.48,391.39,344Zm30.91-12.44c5.17,12.82,9.57,25.64,13.2,38.08-12.53,3.06-25.74,5.65-39.42,7.65,4.69-7.37,9.38-14.93,13.78-22.68S418.37,339.23,422.3,331.57Zm-97,102.09A394.46,394.46,0,0,1,298.68,403c8.61.38,17.41.67,26.31.67s17.89-.19,26.6-.67A373.47,373.47,0,0,1,325.27,433.67Zm-71.19-56.36c-13.59-2-26.7-4.5-39.23-7.56,3.54-12.34,7.94-25.07,12.92-37.79,3.92,7.65,8,15.31,12.53,23S249.4,370,254.09,377.31ZM324.8,178.2a394.46,394.46,0,0,1,26.6,30.62c-8.61-.38-17.41-.67-26.31-.67s-17.89.19-26.6.67A373.47,373.47,0,0,1,324.8,178.2ZM254,234.55c-4.69,7.37-9.38,14.93-13.78,22.68s-8.52,15.31-12.44,23c-5.17-12.82-9.57-25.64-13.2-38.08C227.11,239.15,240.31,236.56,254,234.55ZM167.4,354.35c-33.87-14.45-55.78-33.39-55.78-48.41s21.91-34.06,55.78-48.41c8.23-3.54,17.22-6.7,26.5-9.66a459.55,459.55,0,0,0,21.53,58.27,453.06,453.06,0,0,0-21.24,58C184.72,361.14,175.72,357.89,167.4,354.35Zm51.48,136.73c-13-7.46-18.66-35.88-14.26-72.43,1.05-9,2.77-18.47,4.88-28.13a463.69,463.69,0,0,0,60.76,10.43,466.74,466.74,0,0,0,39.8,47.84c-31.19,29-60.47,44.87-80.37,44.87A22.83,22.83,0,0,1,218.88,491.08Zm227-72.91c4.5,36.55-1.05,65-14,72.53-2.87,1.72-6.6,2.49-11,2.49-19.81,0-49.18-15.79-80.37-44.59A451.92,451.92,0,0,0,380,400.85a446.81,446.81,0,0,0,60.85-10.52A267.87,267.87,0,0,1,445.83,418.17Zm36.84-63.82c-8.23,3.54-17.22,6.7-26.5,9.66a459.55,459.55,0,0,0-21.53-58.27,453.07,453.07,0,0,0,21.24-58c9.47,3,18.47,6.22,26.89,9.76,33.87,14.45,55.78,33.39,55.78,48.41S516.54,340,482.67,354.35Z" fill="#61dafb"/><circle cx="324.99" cy="305.93" r="43.73" fill="#61dafb"/><text transform="translate(675.84 400.43)" font-size="265" fill="#61dafb" font-family="-apple-system,BlinkMacSystemFont,Segoe UI,Helvetica,Arial,sans-serif" letter-spacing="-0.03em">R<tspan x="150.75" y="0" letter-spacing="0em">eact Native</tspan></text></svg>