<svg id="Layer_1" data-name="Layer 1" xmlns="http://www.w3.org/2000/svg" viewBox="0 0 61 56"><title>project-team</title><path d="M30.24,26.82A12.74,12.74,0,1,1,43,14.09,12.75,12.75,0,0,1,30.24,26.82Zm0-24A11.28,11.28,0,1,0,41.52,14.09,11.29,11.29,0,0,0,30.24,2.81Z" style="fill:#234a73"/><path d="M30.24,14.63a4.08,4.08,0,1,1,4.08-4.08A4.08,4.08,0,0,1,30.24,14.63Zm0-6.7a2.62,2.62,0,1,0,2.62,2.62A2.62,2.62,0,0,0,30.24,7.93Z" style="fill:#234a73"/><path d="M30.24,23A12.39,12.39,0,0,1,22,19.8a.9.9,0,0,1-.06-1.29l3-3.22a.89.89,0,0,1,1.26-.06,6.22,6.22,0,0,0,8.4-.17l.53-.5,3.64,3.82A.91.91,0,0,1,39,19a.9.9,0,0,1-.29.63A12.38,12.38,0,0,1,30.24,23Zm-6.87-3.89A11,11,0,0,0,37.25,19L35,16.59a7.69,7.69,0,0,1-9.4.07Zm-.39.42h0Zm0-.79h0Zm2.23-2.39h0Zm.79,0h0Z" style="fill:#234a73"/><path d="M14.24,54.65A12.74,12.74,0,1,1,27,41.91,12.75,12.75,0,0,1,14.24,54.65Zm0-24A11.28,11.28,0,1,0,25.51,41.91,11.29,11.29,0,0,0,14.24,30.64Z" style="fill:#234a73"/><path d="M14.24,42.46a4.08,4.08,0,1,1,4.08-4.08A4.08,4.08,0,0,1,14.24,42.46Zm0-6.7a2.62,2.62,0,1,0,2.62,2.62A2.62,2.62,0,0,0,14.24,35.76Z" style="fill:#234a73"/><path d="M14.24,50.79A12.39,12.39,0,0,1,6,47.63a.9.9,0,0,1-.06-1.29l3-3.23a.89.89,0,0,1,1.25-.06,6.22,6.22,0,0,0,8.4-.17l.53-.5,3.64,3.82a.91.91,0,0,1,.25.65.9.9,0,0,1-.29.64A12.37,12.37,0,0,1,14.24,50.79ZM7.36,46.9a11,11,0,0,0,13.88-.11L19,44.42a7.69,7.69,0,0,1-9.4.07Zm-.43-.37h0Zm2.23-2.39h0Zm.79,0h0Z" style="fill:#234a73"/><path d="M46.76,54.65A12.74,12.74,0,1,1,59.5,41.91,12.75,12.75,0,0,1,46.76,54.65Zm0-24A11.28,11.28,0,1,0,58,41.91,11.29,11.29,0,0,0,46.76,30.64Z" style="fill:#234a73"/><path d="M46.76,42.46a4.08,4.08,0,1,1,4.08-4.08A4.08,4.08,0,0,1,46.76,42.46Zm0-6.7a2.62,2.62,0,1,0,2.62,2.62A2.62,2.62,0,0,0,46.76,35.76Z" style="fill:#234a73"/><path d="M46.76,50.79a12.39,12.39,0,0,1-8.28-3.16.9.9,0,0,1-.06-1.29l3-3.22a.9.9,0,0,1,1.26-.06,6.23,6.23,0,0,0,8.4-.17l.53-.5,3.64,3.82a.91.91,0,0,1,0,1.29A12.37,12.37,0,0,1,46.76,50.79ZM39.89,46.9a11,11,0,0,0,13.88-.11l-2.26-2.37a7.69,7.69,0,0,1-9.4.07Zm-.39.42h0Zm0-.79h0Zm2.23-2.39h0Zm.79,0h0Z" style="fill:#234a73"/><path d="M21,30.49a.73.73,0,0,1-.6-1.15l2-2.85a.73.73,0,1,1,1.2.83l-2,2.85A.73.73,0,0,1,21,30.49Z" style="fill:#234a73"/><path d="M39.81,30.49a.73.73,0,0,1-.6-.31l-2-2.85a.73.73,0,1,1,1.2-.83l2,2.85a.73.73,0,0,1-.6,1.15Z" style="fill:#234a73"/><path d="M32.27,42.64H28.73a.73.73,0,0,1,0-1.46h3.54a.73.73,0,1,1,0,1.46Z" style="fill:#234a73"/></svg>