<svg id="Layer_2" data-name="Layer 2" xmlns="http://www.w3.org/2000/svg" viewBox="0 0 1517.02 1199.59"><title>React-native-icon2</title><path d="M1544.32,628.71c0-54.2-67.86-105.55-171.92-137.39,24-106,13.33-190.42-33.69-217.43a73.19,73.19,0,0,0-37.35-9.27v37.12a38.62,38.62,0,0,1,19,4.34c22.65,13,32.52,62.53,24.85,126.22-1.83,15.68-4.83,32.19-8.5,49a808.07,808.07,0,0,0-105.89-18.18,813.38,813.38,0,0,0-69.36-83.37c54.35-50.54,105.38-78.19,140.06-78.19V264.38h0c-45.85,0-105.89,32.68-166.58,89.38-60.7-56.36-120.72-88.7-166.58-88.7v37.19c34.52,0,85.71,27.52,140.06,77.71a787.55,787.55,0,0,0-68.87,83.21,778.65,778.65,0,0,0-106,18.33c-3.83-16.68-6.67-32.85-8.71-48.36-7.84-63.69,1.83-113.27,24.4-126.4,5-3,11.5-4.34,19.17-4.34V265.22h0a74.34,74.34,0,0,0-37.68,9.34c-46.86,27-57.35,111.22-33.11,216.93-103.71,32-171.24,83.21-171.24,137.24S794.15,734.26,898.15,766.1c-24,106-13.33,190.42,33.69,217.43,10.84,6.34,23.51,9.34,37.52,9.34,45.85,0,105.89-32.68,166.58-89.38,60.7,56.36,120.72,88.7,166.58,88.7a74.34,74.34,0,0,0,37.68-9.34c46.86-27,57.35-111.22,33.11-216.93C1476.72,734.09,1544.32,682.73,1544.32,628.71Zm-217.1-111.22c-6.17,21.5-13.84,43.69-22.52,65.86-6.83-13.33-13.94-26.68-21.84-40.08s-15.84-26.35-24-39C1282.53,507.82,1305.38,512.16,1327.22,517.49Zm-76.36,177.56c-13,22.52-26.35,43.85-40.19,63.69-24.85,2.16-50,3.33-75.37,3.33s-50.36-1.17-75-3.17q-20.76-29.76-40.34-63.36-18.94-32.73-34.63-66.33c10.33-22.34,22-44.68,34.52-66.54,13-22.52,26.35-43.85,40.19-63.69,24.85-2.16,50-3.33,75.37-3.33s50.36,1.17,75,3.17q20.76,29.77,40.34,63.36,19,32.76,34.68,66.36C1274.87,650.89,1263.36,673.23,1250.85,695.05Zm53.87-21.68c9,22.34,16.68,44.68,23,66.36-21.84,5.33-44.86,9.85-68.7,13.33,8.17-12.84,16.35-26,24-39.52s14.83-26.8,21.68-40.15Zm-169,177.91a687.43,687.43,0,0,1-46.39-53.41c15,.66,30.34,1.17,45.85,1.17s31.18-.33,46.36-1.17a650.85,650.85,0,0,1-45.87,53.45Zm-124.06-98.22c-23.68-3.49-46.53-7.84-68.37-13.17,6.17-21.5,13.84-43.69,22.52-65.86,6.83,13.33,13.94,26.68,21.84,40.08s15.81,26.24,24,39Zm123.19-347a687.41,687.41,0,0,1,46.36,53.36c-15-.66-30.34-1.17-45.85-1.17s-31.18.33-46.36,1.17A650.83,650.83,0,0,1,1134.81,406.12Zm-123.38,98.2c-8.17,12.84-16.35,26-24,39.52s-14.85,26.68-21.68,40.08c-9-22.34-16.68-44.68-23-66.36C964.56,512.33,987.57,507.82,1011.42,504.32ZM860.51,713.09c-59-25.18-97.21-58.19-97.21-84.36s38.18-59.36,97.21-84.36c14.34-6.17,30-11.68,46.18-16.83a800.85,800.85,0,0,0,37.52,101.55,789.54,789.54,0,0,0-37,101.08C890.69,724.92,875,719.26,860.51,713.09Zm89.71,238.28c-22.65-13-32.52-62.53-24.85-126.22,1.83-15.68,4.83-32.19,8.5-49a808.06,808.06,0,0,0,105.89,18.18,813.38,813.38,0,0,0,69.36,83.37c-54.35,50.54-105.38,78.19-140.06,78.19a39.79,39.79,0,0,1-18.84-4.5Zm395.59-127.06c7.84,63.69-1.83,113.27-24.4,126.4-5,3-11.5,4.34-19.17,4.34-34.52,0-85.71-27.52-140.06-77.71A787.55,787.55,0,0,0,1231,794.12a778.65,778.65,0,0,0,106-18.33,466.81,466.81,0,0,1,8.68,48.52ZM1410,713.09c-14.34,6.17-30,11.68-46.18,16.83a800.84,800.84,0,0,0-37.52-101.55,789.56,789.56,0,0,0,37-101.08c16.5,5.23,32.19,10.84,46.86,17,59,25.18,97.21,58.19,97.21,84.36s-38.44,59.41-97.47,84.42Z" transform="translate(-385.15 -264.38)" fill="#61dafb"/><circle cx="749.99" cy="364.32" r="76.21" fill="#61dafb"/><text transform="translate(0 1113.54)" font-size="265" fill="#61dafb" font-family="-apple-system,BlinkMacSystemFont,Segoe UI,Helvetica,Arial,sans-serif" style="isolation:isolate">React Native</text></svg>