<svg id="Layer_1" data-name="Layer 1" xmlns="http://www.w3.org/2000/svg" viewBox="0 0 260 70"><title>trymeet</title><g id="open_sans" data-name="open sans"><path d="M101.16,56.84h-4v-31H86.2V22.3h25.9v3.57H101.16Z" style="fill:#fff"/><path d="M125.47,30.47a15.4,15.4,0,0,1,3.1.28L128,34.39a13.36,13.36,0,0,0-2.84-.35,6.9,6.9,0,0,0-5.37,2.55,9.3,9.3,0,0,0-2.23,6.36V56.84h-3.92V30.94h3.24l.45,4.8h.19a11.38,11.38,0,0,1,3.47-3.9A7.82,7.82,0,0,1,125.47,30.47Z" style="fill:#fff"/><path d="M129.15,30.94h4.21L139,45.71a56.36,56.36,0,0,1,2.32,7.3h.19q.31-1.21,1.29-4.12t6.42-17.95h4.21L142.32,60.43a14.71,14.71,0,0,1-3.86,6.2A8.22,8.22,0,0,1,133,68.47a15.8,15.8,0,0,1-3.55-.4V64.92a13.64,13.64,0,0,0,2.91.28q4,0,5.77-4.54L139.6,57Z" style="fill:#fff"/><path d="M171.5,56.84l-12.88-31.9h-.19q.19,2.93.19,6v25.9H156.3V22.3H160l12.24,30.39h.14L184.66,22.3h3.64V56.84h-2.43V30.66q0-2.74.28-5.67H186L173,56.84Z" style="fill:#fff"/><path d="M205.76,57.31q-5.6,0-8.73-3.45T193.9,44.2q0-6.14,3-9.84a10,10,0,0,1,8.15-3.7,8.8,8.8,0,0,1,7.16,3.17q2.62,3.17,2.62,8.6v1.89h-18.5q0,5.29,2.47,8.08a8.69,8.69,0,0,0,6.94,2.79,21.49,21.49,0,0,0,3.86-.31,23.55,23.55,0,0,0,4.22-1.32v2.13a18.78,18.78,0,0,1-4,1.29A22.29,22.29,0,0,1,205.76,57.31Zm-.69-24.57a7.69,7.69,0,0,0-6,2.45,11.53,11.53,0,0,0-2.62,7.05h15.88a11.2,11.2,0,0,0-1.94-7A6.39,6.39,0,0,0,205.07,32.74Z" style="fill:#fff"/><path d="M230.24,57.31q-5.6,0-8.73-3.45t-3.13-9.66q0-6.14,3-9.84a10,10,0,0,1,8.15-3.7,8.8,8.8,0,0,1,7.16,3.17q2.62,3.17,2.62,8.6v1.89h-18.5q0,5.29,2.47,8.08a8.69,8.69,0,0,0,6.94,2.79,21.49,21.49,0,0,0,3.86-.31,23.55,23.55,0,0,0,4.22-1.32v2.13a18.78,18.78,0,0,1-4,1.29A22.29,22.29,0,0,1,230.24,57.31Zm-.69-24.57a7.69,7.69,0,0,0-6,2.45A11.53,11.53,0,0,0,221,42.24h15.88a11.2,11.2,0,0,0-1.94-7A6.39,6.39,0,0,0,229.55,32.74Z" style="fill:#fff"/><path d="M251.12,55.24a17.49,17.49,0,0,0,3.88-.38v1.89a12.4,12.4,0,0,1-3.92.57,6.39,6.39,0,0,1-5-1.82q-1.62-1.82-1.62-5.72V33.19h-3.8V31.82l3.8-1.06,1.18-5.81h1.21v6.21h7.54v2h-7.54V49.45a7.42,7.42,0,0,0,1,4.37A3.77,3.77,0,0,0,251.12,55.24Z" style="fill:#fff"/><path d="M37.2,67.9s28.61-20.14,31.86-39S55.34,5.15,53.76,4.73,35.71.25,29.1,18.2s8.1,49.7,8.1,49.7m.42-46.18a11.55,11.55,0,1,1,8.17,14.15,11.55,11.55,0,0,1-8.17-14.15" style="fill:#ff4200"/><path d="M37.27,67.9S52,36.16,45.37,18.2,22.3,4.31,20.72,4.73,2.16,10.05,5.41,28.91s31.86,39,31.86,39m-.42-46.18a11.55,11.55,0,1,1-14.15-8.17,11.55,11.55,0,0,1,14.15,8.17" style="fill:#fff"/><path d="M37.31,67.85c.56-1.23,7.5-16.65,9.33-31.76-.29-.05-.57-.12-.86-.19a11.55,11.55,0,0,1-8.54-10.54A11.55,11.55,0,0,1,28.69,35.9c-.29.08-.57.14-.86.19,1.83,15.11,8.76,30.53,9.33,31.76l.08.05Z" style="fill:#ff6833"/></g></svg>