<svg id="Layer_1" data-name="Layer 1" xmlns="http://www.w3.org/2000/svg" viewBox="0 0 226 65"><title>yapapp</title><path d="M45.13,15.3C35,15.3,28.68,23.07,28.68,32S35,48.76,45.13,48.76a13.64,13.64,0,0,0,10.26-4.39v1.37a3.1,3.1,0,0,0,6.19,0V32.63C61.58,23.07,55.31,15.3,45.13,15.3ZM55.39,42.06l-2.53-1.91a.85.85,0,0,0-1.19.06,9,9,0,0,1-6.55,2.33c-6.35,0-10.26-4.84-10.26-10.43s3.91-10.43,10.26-10.43c7.14,0,10.26,5.44,10.26,11ZM158.31,15.3c-10.18,0-16.45,7.77-16.45,17.33V59.48a3.1,3.1,0,1,0,6.19,0V44.37a13.64,13.64,0,0,0,10.26,4.39c10.18,0,16.45-7.77,16.45-16.73S168.49,15.3,158.31,15.3Zm0,27.24a9,9,0,0,1-6.55-2.33.85.85,0,0,0-1.19-.06L148,42.06V32.71c0-5.59,3.12-11,10.26-11,6.35,0,10.26,4.84,10.26,10.43S164.65,42.54,158.31,42.54ZM34,2.63l-2.3-2a1.59,1.59,0,0,0-2.41.22L17.38,18.39,5.48.93A1.59,1.59,0,0,0,3.07.71l-2.3,2A2,2,0,0,0,.28,5.29l14,20.55h0V45.74a3.1,3.1,0,0,0,6.19,0V25.83l1-1.45h0l13-19.14A2,2,0,0,0,34,2.63ZM123,5.3a3.2,3.2,0,0,0-6,0L101.71,44.83a3.1,3.1,0,0,0,1.77,4h0a3.1,3.1,0,0,0,4-1.77l5.21-13.45h14.64l5.21,13.45a3.1,3.1,0,1,0,5.77-2.24Zm-7.9,22.13L120,14.74l4.92,12.69ZM196.81,15.3c-10.18,0-16.45,7.77-16.45,17.33V59.48a3.1,3.1,0,0,0,6.19,0V44.37a13.64,13.64,0,0,0,10.26,4.39C207,48.76,213.26,41,213.26,32S207,15.3,196.81,15.3Zm0,27.24a9,9,0,0,1-6.55-2.33.85.85,0,0,0-1.19-.06l-2.53,1.91V32.71c0-5.59,3.12-11,10.26-11,6.35,0,10.26,4.84,10.26,10.43S203.15,42.54,196.8,42.54ZM83.6,15.3c-10.18,0-16.45,7.77-16.45,17.33V59.48a3.1,3.1,0,0,0,6.19,0V44.37A13.64,13.64,0,0,0,83.6,48.76c10.18,0,16.45-7.77,16.45-16.73S93.78,15.3,83.6,15.3Zm0,27.24a9,9,0,0,1-6.55-2.33.85.85,0,0,0-1.19-.06l-2.53,1.91V32.71c0-5.59,3.12-11,10.26-11,6.35,0,10.26,4.84,10.26,10.43S89.94,42.54,83.6,42.54Z" fill="#fff"/><path d="M44.84,64.79a30.7,30.7,0,0,1-22.38-9.68,2.08,2.08,0,0,1,.23-3h0a2.08,2.08,0,0,1,2.82.16A26.52,26.52,0,0,0,45.27,60.6a2.1,2.1,0,0,1,2.14,1.9h0a2.1,2.1,0,0,1-2.05,2.28Z" fill="#fff"/><path d="M44.73,54.05A20.28,20.28,0,0,1,31,48.52a1.49,1.49,0,0,0-2,0h0a1.49,1.49,0,0,0,0,2.18A23.3,23.3,0,0,0,44.73,57a1.49,1.49,0,0,0,1.48-1.59h0A1.49,1.49,0,0,0,44.73,54.05Z" fill="#fff"/><path d="M221.78,21.35A26.53,26.53,0,0,0,206,6.76a2.08,2.08,0,0,1-1.32-2.5h0a2.1,2.1,0,0,1,2.73-1.44,30.7,30.7,0,0,1,18.21,16.79,2.1,2.1,0,0,1-1.21,2.84h0A2.08,2.08,0,0,1,221.78,21.35Z" fill="#fff"/><path d="M215.41,23.14a20.28,20.28,0,0,0-10.94-10,1.49,1.49,0,0,1-.91-1.82h0a1.49,1.49,0,0,1,1.94-1,23.3,23.3,0,0,1,12.6,11.48,1.49,1.49,0,0,1-.79,2h0A1.49,1.49,0,0,1,215.41,23.14Z" fill="#fff"/></svg>